<mxfile host="app.diagrams.net" modified="2021-06-16T17:19:31.028Z" agent="5.0 (Macintosh; Intel Mac OS X 10_15_7) AppleWebKit/537.36 (KHTML, like Gecko) Chrome/91.0.4472.101 Safari/537.36" etag="vsdELG6-l0a_FuJQEMpM" version="14.7.10" type="github">
  <diagram id="ta-FsTBGYXVgx4njKU8u" name="Page-1">
    <mxGraphModel dx="786" dy="546" grid="1" gridSize="10" guides="1" tooltips="1" connect="1" arrows="1" fold="1" page="1" pageScale="1" pageWidth="1600" pageHeight="1600" math="0" shadow="0">
      <root>
        <mxCell id="0" />
        <mxCell id="1" parent="0" />
        <mxCell id="51v0FWRaoKsFfajjQMwI-38" value="" style="html=1;fillColor=none;" parent="1" vertex="1">
          <mxGeometry x="340" y="100" width="400" height="400" as="geometry" />
        </mxCell>
        <mxCell id="51v0FWRaoKsFfajjQMwI-7" value="" style="html=1;fillColor=none;" parent="1" vertex="1">
          <mxGeometry x="560" y="120" width="160" height="360" as="geometry" />
        </mxCell>
        <mxCell id="51v0FWRaoKsFfajjQMwI-27" value="Sistem Edugraph" style="text;align=center;fontStyle=0;verticalAlign=middle;spacingLeft=3;spacingRight=3;strokeColor=none;rotatable=0;points=[[0,0.5],[1,0.5]];portConstraint=eastwest;fontSize=9;fillColor=none;" parent="1" vertex="1">
          <mxGeometry x="580" y="130" width="110" height="10" as="geometry" />
        </mxCell>
        <mxCell id="51v0FWRaoKsFfajjQMwI-29" style="edgeStyle=none;rounded=0;orthogonalLoop=1;jettySize=auto;html=1;fontSize=9;entryX=0;entryY=0.5;entryDx=0;entryDy=0;" parent="1" source="51v0FWRaoKsFfajjQMwI-28" edge="1" target="51v0FWRaoKsFfajjQMwI-15">
          <mxGeometry relative="1" as="geometry">
            <mxPoint x="600" y="175" as="targetPoint" />
          </mxGeometry>
        </mxCell>
        <mxCell id="51v0FWRaoKsFfajjQMwI-30" style="edgeStyle=none;rounded=0;orthogonalLoop=1;jettySize=auto;html=1;entryX=0;entryY=0.5;entryDx=0;entryDy=0;fontSize=9;" parent="1" source="51v0FWRaoKsFfajjQMwI-28" target="51v0FWRaoKsFfajjQMwI-5" edge="1">
          <mxGeometry relative="1" as="geometry" />
        </mxCell>
        <mxCell id="51v0FWRaoKsFfajjQMwI-31" style="edgeStyle=none;rounded=0;orthogonalLoop=1;jettySize=auto;html=1;entryX=0;entryY=0.5;entryDx=0;entryDy=0;fontSize=9;" parent="1" source="51v0FWRaoKsFfajjQMwI-28" target="51v0FWRaoKsFfajjQMwI-8" edge="1">
          <mxGeometry relative="1" as="geometry" />
        </mxCell>
        <mxCell id="51v0FWRaoKsFfajjQMwI-32" style="edgeStyle=none;rounded=0;orthogonalLoop=1;jettySize=auto;html=1;entryX=0;entryY=0.5;entryDx=0;entryDy=0;fontSize=9;" parent="1" source="51v0FWRaoKsFfajjQMwI-28" target="51v0FWRaoKsFfajjQMwI-12" edge="1">
          <mxGeometry relative="1" as="geometry" />
        </mxCell>
        <mxCell id="51v0FWRaoKsFfajjQMwI-33" style="edgeStyle=none;rounded=0;orthogonalLoop=1;jettySize=auto;html=1;entryX=0;entryY=0.5;entryDx=0;entryDy=0;fontSize=9;" parent="1" source="51v0FWRaoKsFfajjQMwI-28" target="51v0FWRaoKsFfajjQMwI-13" edge="1">
          <mxGeometry relative="1" as="geometry" />
        </mxCell>
        <mxCell id="51v0FWRaoKsFfajjQMwI-34" style="edgeStyle=none;rounded=0;orthogonalLoop=1;jettySize=auto;html=1;entryX=0;entryY=0.5;entryDx=0;entryDy=0;fontSize=9;" parent="1" source="51v0FWRaoKsFfajjQMwI-28" target="51v0FWRaoKsFfajjQMwI-14" edge="1">
          <mxGeometry relative="1" as="geometry" />
        </mxCell>
        <mxCell id="51v0FWRaoKsFfajjQMwI-35" style="edgeStyle=none;rounded=0;orthogonalLoop=1;jettySize=auto;html=1;entryX=0;entryY=0.5;entryDx=0;entryDy=0;fontSize=9;" parent="1" source="51v0FWRaoKsFfajjQMwI-28" target="51v0FWRaoKsFfajjQMwI-24" edge="1">
          <mxGeometry relative="1" as="geometry" />
        </mxCell>
        <mxCell id="51v0FWRaoKsFfajjQMwI-39" value="Use Case Diagram Sistem Edugraph" style="text;align=center;fontStyle=0;verticalAlign=middle;spacingLeft=3;spacingRight=3;strokeColor=none;rotatable=0;points=[[0,0.5],[1,0.5]];portConstraint=eastwest;fontSize=9;fillColor=none;" parent="1" vertex="1">
          <mxGeometry x="370" y="110" width="110" height="10" as="geometry" />
        </mxCell>
        <mxCell id="51v0FWRaoKsFfajjQMwI-45" value="" style="endArrow=none;html=1;fontSize=9;" parent="1" edge="1">
          <mxGeometry width="50" height="50" relative="1" as="geometry">
            <mxPoint x="340" y="130" as="sourcePoint" />
            <mxPoint x="500.3" y="130" as="targetPoint" />
          </mxGeometry>
        </mxCell>
        <mxCell id="51v0FWRaoKsFfajjQMwI-46" value="" style="endArrow=none;html=1;fontSize=9;" parent="1" edge="1">
          <mxGeometry width="50" height="50" relative="1" as="geometry">
            <mxPoint x="510" y="100" as="sourcePoint" />
            <mxPoint x="510" y="120.3" as="targetPoint" />
          </mxGeometry>
        </mxCell>
        <mxCell id="51v0FWRaoKsFfajjQMwI-47" value="" style="endArrow=none;html=1;fontSize=9;" parent="1" edge="1">
          <mxGeometry width="50" height="50" relative="1" as="geometry">
            <mxPoint x="510.1" y="120" as="sourcePoint" />
            <mxPoint x="500" y="130.1" as="targetPoint" />
          </mxGeometry>
        </mxCell>
        <mxCell id="sAu1Fkm6oOK73yoUIcOa-4" value="" style="group" vertex="1" connectable="0" parent="1">
          <mxGeometry x="350" y="260" width="90" height="100" as="geometry" />
        </mxCell>
        <mxCell id="51v0FWRaoKsFfajjQMwI-28" value="" style="html=1;fillColor=none;strokeColor=none;" parent="sAu1Fkm6oOK73yoUIcOa-4" vertex="1">
          <mxGeometry width="90" height="100" as="geometry" />
        </mxCell>
        <mxCell id="51v0FWRaoKsFfajjQMwI-1" value="&lt;font style=&quot;font-size: 10px&quot;&gt;Anak Disgrafia&lt;/font&gt;" style="shape=umlActor;verticalLabelPosition=bottom;verticalAlign=top;html=1;" parent="sAu1Fkm6oOK73yoUIcOa-4" vertex="1">
          <mxGeometry x="30" y="13.75" width="30" height="60" as="geometry" />
        </mxCell>
        <mxCell id="sAu1Fkm6oOK73yoUIcOa-5" value="" style="group" vertex="1" connectable="0" parent="1">
          <mxGeometry x="580" y="160" width="120" height="300" as="geometry" />
        </mxCell>
        <mxCell id="51v0FWRaoKsFfajjQMwI-5" value="Melihat Tabel Huruf, &lt;br style=&quot;font-size: 9px&quot;&gt;Angka, dan Simbol" style="rounded=1;whiteSpace=wrap;html=1;arcSize=40;fontSize=9;verticalAlign=top;spacing=0;" parent="sAu1Fkm6oOK73yoUIcOa-5" vertex="1">
          <mxGeometry y="40" width="120" height="30" as="geometry" />
        </mxCell>
        <mxCell id="51v0FWRaoKsFfajjQMwI-8" value="Melihat Animasi &lt;br&gt;Penulisan Huruf, &lt;br style=&quot;font-size: 9px&quot;&gt;Angka, dan Simbol" style="rounded=1;whiteSpace=wrap;html=1;arcSize=40;fontSize=9;verticalAlign=top;spacing=0;" parent="sAu1Fkm6oOK73yoUIcOa-5" vertex="1">
          <mxGeometry y="80" width="120" height="40" as="geometry" />
        </mxCell>
        <mxCell id="51v0FWRaoKsFfajjQMwI-12" value="Mendengarkan&lt;br&gt;Pengucapan Huruf, &lt;br style=&quot;font-size: 9px&quot;&gt;Angka, dan Simbol" style="rounded=1;whiteSpace=wrap;html=1;arcSize=40;fontSize=9;verticalAlign=top;spacing=0;" parent="sAu1Fkm6oOK73yoUIcOa-5" vertex="1">
          <mxGeometry y="130" width="120" height="40" as="geometry" />
        </mxCell>
        <mxCell id="51v0FWRaoKsFfajjQMwI-13" value="Tes Menulis Huruf, &lt;br&gt;Angka, dan Simbol dengan&amp;nbsp;&lt;i&gt;Canvas&lt;/i&gt;" style="rounded=1;whiteSpace=wrap;html=1;arcSize=40;fontSize=9;verticalAlign=top;spacing=0;" parent="sAu1Fkm6oOK73yoUIcOa-5" vertex="1">
          <mxGeometry y="180" width="120" height="40" as="geometry" />
        </mxCell>
        <mxCell id="51v0FWRaoKsFfajjQMwI-14" value="Tes Menulis Huruf, &lt;br&gt;Angka, dan Simbol dengan Alat Tulis dan Kamera" style="rounded=1;whiteSpace=wrap;html=1;arcSize=40;fontSize=9;verticalAlign=top;spacing=0;" parent="sAu1Fkm6oOK73yoUIcOa-5" vertex="1">
          <mxGeometry y="230" width="120" height="40" as="geometry" />
        </mxCell>
        <mxCell id="51v0FWRaoKsFfajjQMwI-15" value="Menonton Video &lt;br&gt;Senam Motorik" style="rounded=1;whiteSpace=wrap;html=1;arcSize=40;fontSize=9;verticalAlign=top;spacing=0;" parent="sAu1Fkm6oOK73yoUIcOa-5" vertex="1">
          <mxGeometry width="120" height="30" as="geometry" />
        </mxCell>
        <mxCell id="51v0FWRaoKsFfajjQMwI-24" value="Melihat Peringkat" style="rounded=1;whiteSpace=wrap;html=1;arcSize=40;fontSize=9;verticalAlign=top;spacing=0;" parent="sAu1Fkm6oOK73yoUIcOa-5" vertex="1">
          <mxGeometry y="280" width="120" height="20" as="geometry" />
        </mxCell>
      </root>
    </mxGraphModel>
  </diagram>
</mxfile>
